<svg width="1024" height="1024" viewBox="0 0 1024 1024" fill="none" xmlns="http://www.w3.org/2000/svg">
<rect width="1024" height="1024" rx="129" fill="#1E1E1E"/>
<path d="M256.755 370.407L503.795 231.447C508.442 228.834 510.764 227.527 513.225 227.015C515.407 226.562 517.654 226.562 519.837 227.015C522.298 227.527 524.62 228.834 529.266 231.447L776.307 370.407M256.755 370.407V647.461C256.755 652.994 256.755 655.758 257.567 658.229C258.285 660.414 259.459 662.421 261.011 664.116C262.766 666.035 265.176 667.393 269.997 670.104L516.531 808.779M256.755 370.407L516.531 500.295M776.307 370.407V647.461C776.307 652.994 776.307 655.758 775.495 658.229C774.777 660.414 773.602 662.421 772.05 664.116C770.296 666.035 767.887 667.393 763.065 670.104L516.531 808.779M776.307 370.407L516.531 500.295M516.531 808.779V500.295" stroke="#266EFF" stroke-width="54" stroke-linecap="round" stroke-linejoin="round"/>
</svg>
